<svg id="Capa_1" enable-background="new 0 0 512 512" height="512" viewBox="0 0 512 512" width="512" xmlns="http://www.w3.org/2000/svg"><g><g><path d="m512 217.029v157.259h-153.257v-271h77.427l20.002 30 10.429 36.64 38.429 36.64z" fill="#d7f3f7"/><path d="m505.03 206.568h-101.26v-73.28h52.4z" fill="#afd6e0"/></g><path d="m256 240.998-256 30v103.29h374.29v-103.29z" fill="#fe4a4a"/><path d="m374.29 270.998v103.29h-118.29v-133.29z" fill="#e80b6a"/><path d="m146.28 94.718v146.28l-73.14 30-73.14-30v-146.28h58.14l15 14 15-14z" fill="#ffda2d"/><path d="m146.28 94.718v146.28l-73.14 30v-162.28l15-14z" fill="#fcbe00"/><path d="m58.14 94.718h30v44.14h-30z" fill="#ffa001"/><path d="m73.14 94.718h15v44.14h-15z" fill="#f87f02"/><path d="m292.56 94.718v146.28l-73.14 30-73.14-30v-146.28h58.14l15 14 15-14z" fill="#ffda2d"/><path d="m292.56 94.718v146.28l-73.14 30v-162.28l15-14z" fill="#fcbe00"/><path d="m204.42 94.718h30v44.14h-30z" fill="#ffa001"/><path d="m219.42 94.718h15v44.14h-15z" fill="#f87f02"/><path d="m374.29 68.858v202.14h-374.29v-30h344.29v-172.14z" fill="#39689e"/><path d="m374.29 68.858v202.14h-118.29v-30h88.29v-172.14z" fill="#224370"/><path d="m118.286 443.142c-36.747 0-66.644-29.896-66.644-66.643s29.896-66.643 66.644-66.643 66.643 29.896 66.643 66.643-29.896 66.643-66.643 66.643z" fill="#4abbef"/><path d="m103.286 361.498h30v30h-30z" fill="#39689e"/><path d="m393.714 443.142c-36.747 0-66.643-29.896-66.643-66.643s29.896-66.643 66.643-66.643 66.644 29.896 66.644 66.643-29.897 66.643-66.644 66.643z" fill="#009be5"/><path d="m378.714 361.498h30v30h-30z" fill="#224370"/></g></svg>